<?xml version="1.0" encoding="utf-8"?>
<!-- Generator: Adobe Illustrator 25.3.0, SVG Export Plug-In . SVG Version: 6.00 Build 0)  -->
<svg version="1.1" id="Camada_1" xmlns="http://www.w3.org/2000/svg" xmlns:xlink="http://www.w3.org/1999/xlink" x="0px" y="0px"
	 viewBox="0 0 800 600" style="enable-background:new 0 0 800 600;" xml:space="preserve">
<style type="text/css">
	.st0{opacity:0;fill:#606060;}
	.st1{fill:#5C4A87;}
	.st2{fill:#383861;}
	.st3{fill:url(#SVGID_1_);}
	.st4{fill:url(#SVGID_2_);}
	.st5{fill:#4E3A99;}
	.st6{fill:#EA86A5;}
	.st7{fill:#EA5A79;}
	.st8{fill:#444299;}
	.st9{opacity:0.5;fill:#FFFFFF;}
	.st10{fill:#483861;}
	.st11{fill:#BEB2FF;}
	.st12{fill:#EDEEF0;}
	.st13{fill:#D8D9DD;}
	.st14{fill:#A65CA5;}
	.st15{fill:#B686A5;}
	.st16{fill:#DC90A5;}
	.st17{fill:#BAB5C1;}
	.st18{fill:#333656;}
	.st19{fill:url(#SVGID_3_);}
</style>
<rect x="-9" y="0" transform="matrix(0.9999 -0.014 0.014 0.9999 -4.1503 5.4881)" class="st0" width="800" height="600"/>
<g>
	<rect x="142" y="314" class="st1" width="536" height="16"/>
</g>
<rect x="186" y="330" class="st2" width="460" height="52"/>
<linearGradient id="SVGID_1_" gradientUnits="userSpaceOnUse" x1="174" y1="470.517" x2="174" y2="337.4418">
	<stop  offset="0" style="stop-color:#FFFFFF;stop-opacity:0"/>
	<stop  offset="0.6578" style="stop-color:#383861"/>
</linearGradient>
<rect x="162" y="330" class="st3" width="24" height="148"/>
<linearGradient id="SVGID_2_" gradientUnits="userSpaceOnUse" x1="658" y1="471.8776" x2="658" y2="336.7339">
	<stop  offset="0" style="stop-color:#FFFFFF;stop-opacity:0"/>
	<stop  offset="0.6455" style="stop-color:#383861"/>
</linearGradient>
<rect x="646" y="330" class="st4" width="24" height="148"/>
<path class="st5" d="M404,372H208c-3.31,0-6-2.69-6-6v-20c0-3.31,2.69-6,6-6h196c3.31,0,6,2.69,6,6v20
	C410,369.31,407.31,372,404,372z"/>
<path class="st5" d="M624,373H428c-3.31,0-6-2.69-6-6v-20c0-3.31,2.69-6,6-6h196c3.31,0,6,2.69,6,6v20
	C630,370.31,627.31,373,624,373z"/>
<circle class="st6" cx="306" cy="356" r="6"/>
<circle class="st6" cx="527" cy="356" r="6"/>
<path class="st6" d="M329,314H177c-3.31,0-6-2.69-6-6V204c0-3.31,2.69-6,6-6h152c3.31,0,6,2.69,6,6v104
	C335,311.31,332.31,314,329,314z"/>
<path class="st7" d="M278.55,314h-47.1c-1.35,0-2.45-1.1-2.45-2.45v-1.1c0-1.35,1.1-2.45,2.45-2.45h47.1c1.35,0,2.45,1.1,2.45,2.45
	v1.1C281,312.9,279.9,314,278.55,314z"/>
<rect x="178" y="205" class="st8" width="152" height="98"/>
<path class="st6" d="M340,307h-61.14c0.08,0.32,0.14,0.65,0.14,1c0,2.21-1.79,4-4,4h-40c-2.21,0-4-1.79-4-4c0-0.35,0.06-0.68,0.14-1
	H164c-2.21,0-4,1.79-4,4v2c0,2.21,1.79,4,4,4h176c2.21,0,4-1.79,4-4v-2C344,308.79,342.21,307,340,307z"/>
<polygon class="st9" points="277.62,205 179.62,303 178,303 178,242.38 215.38,205 "/>
<polygon class="st9" points="294.66,205 196.66,303 185.34,303 283.34,205 "/>
<circle class="st7" cx="257" cy="202" r="2"/>
<path class="st6" d="M437,318h-66c-2.21,0-4-1.79-4-4l0,0c0-2.21,1.79-4,4-4h66c2.21,0,4,1.79,4,4l0,0
	C441,316.21,439.21,318,437,318z"/>
<path class="st6" d="M419.73,268H388.5l-9.38,44h50L419.73,268z M409,294c0,2.76-2.24,5-5,5s-5-2.24-5-5v-10c0-2.76,2.24-5,5-5
	s5,2.24,5,5V294z"/>
<path class="st6" d="M505,277H307c-6.63,0-12-5.37-12-12V159c0-6.63,5.37-12,12-12h198c6.63,0,12,5.37,12,12v106
	C517,271.63,511.63,277,505,277z"/>
<rect x="307" y="157" class="st8" width="204" height="106"/>
<polygon class="st9" points="411.12,157 307,261.12 307,198.88 348.88,157 "/>
<polygon class="st9" points="433.66,158 327.66,264 316.34,264 422.34,158 "/>
<circle class="st7" cx="412" cy="153" r="2"/>
<rect x="590.04" y="59.67" transform="matrix(0.6408 -0.7677 0.7677 0.6408 114.0139 504.3922)" class="st8" width="12" height="141.36"/>
<path class="st6" d="M540.93,99.66l-13.86-8l6-10.39c2.21-3.83,7.1-5.14,10.93-2.93v0c3.83,2.21,5.14,7.1,2.93,10.93L540.93,99.66z"
	/>
<path class="st8" d="M543.06,147.49l-60.62-35l20.74-22.14c6.36-6.78,16.55-8.29,24.6-3.65l14.95,8.63
	c8.05,4.65,11.84,14.23,9.14,23.12L543.06,147.49z"/>
<rect x="623" y="170" transform="matrix(0.9428 0.3333 -0.3333 0.9428 115.9445 -195.9072)" class="st8" width="12" height="140"/>
<path class="st10" d="M643,315h-78l0,0c0-6.63,5.37-12,12-12h54C637.63,303,643,308.37,643,315L643,315z"/>
<polygon class="st2" points="511,316 487,316 481,264 517,264 "/>
<polygon class="st11" points="516,301 481.5,301 479.26,283 518.24,283 "/>
<rect x="478" y="260" class="st12" width="42" height="6"/>
<rect x="481" y="258" class="st13" width="36" height="4"/>
<circle class="st5" cx="208.5" cy="121" r="56"/>
<circle class="st2" cx="209" cy="121" r="47"/>
<rect x="206" y="151" class="st14" width="4" height="14"/>
<rect x="173" y="113" transform="matrix(6.123234e-17 -1 1 6.123234e-17 55 295)" class="st14" width="4" height="14"/>
<rect x="244" y="112" transform="matrix(-1.836970e-16 1 -1 -1.836970e-16 365 -127)" class="st14" width="4" height="14"/>
<rect x="209" y="83" class="st14" width="4" height="14"/>
<path class="st15" d="M246.18,143.03L246.18,143.03c-0.53,0.97-1.74,1.33-2.71,0.8l-36.86-20.13c-0.97-0.53-1.33-1.74-0.8-2.71v0
	c0.53-0.97,1.74-1.33,2.71-0.8l36.86,20.13C246.36,140.84,246.71,142.06,246.18,143.03z"/>
<path class="st16" d="M210.57,125.92L210.57,125.92c-2.01,0.92-4.38,0.03-5.3-1.97l-15.8-34.56c-0.92-2.01-0.03-4.38,1.97-5.3l0,0
	c2.01-0.92,4.38-0.03,5.3,1.97l15.8,34.56C213.46,122.62,212.57,125,210.57,125.92z"/>
<circle class="st17" cx="209" cy="123" r="7"/>
<g>
	<path class="st6" d="M673,163L673,163c-1.1,0-2-0.9-2-2v-10c0-1.1,0.9-2,2-2l0,0c1.1,0,2,0.9,2,2v10C675,162.1,674.1,163,673,163z"
		/>
	<path class="st6" d="M680,156L680,156c0,1.1-0.9,2-2,2h-10c-1.1,0-2-0.9-2-2l0,0c0-1.1,0.9-2,2-2h10C679.1,154,680,154.9,680,156z"
		/>
</g>
<g>
	<path class="st6" d="M689,188L689,188c-1.1,0-2-0.9-2-2v-10c0-1.1,0.9-2,2-2l0,0c1.1,0,2,0.9,2,2v10C691,187.1,690.1,188,689,188z"
		/>
	<path class="st6" d="M696,181L696,181c0,1.1-0.9,2-2,2h-10c-1.1,0-2-0.9-2-2l0,0c0-1.1,0.9-2,2-2h10C695.1,179,696,179.9,696,181z"
		/>
</g>
<g>
	<path class="st6" d="M386,111L386,111c-1.1,0-2-0.9-2-2V99c0-1.1,0.9-2,2-2l0,0c1.1,0,2,0.9,2,2v10C388,110.1,387.1,111,386,111z"
		/>
	<path class="st6" d="M393,104L393,104c0,1.1-0.9,2-2,2h-10c-1.1,0-2-0.9-2-2l0,0c0-1.1,0.9-2,2-2h10C392.1,102,393,102.9,393,104z"
		/>
</g>
<g>
	<path class="st6" d="M349,116L349,116c-1.1,0-2-0.9-2-2v-10c0-1.1,0.9-2,2-2l0,0c1.1,0,2,0.9,2,2v10C351,115.1,350.1,116,349,116z"
		/>
	<path class="st6" d="M356,109L356,109c0,1.1-0.9,2-2,2h-10c-1.1,0-2-0.9-2-2l0,0c0-1.1,0.9-2,2-2h10C355.1,107,356,107.9,356,109z"
		/>
</g>
<g>
	<path class="st6" d="M162,188L162,188c-1.1,0-2-0.9-2-2v-10c0-1.1,0.9-2,2-2l0,0c1.1,0,2,0.9,2,2v10C164,187.1,163.1,188,162,188z"
		/>
	<path class="st6" d="M169,181L169,181c0,1.1-0.9,2-2,2h-10c-1.1,0-2-0.9-2-2l0,0c0-1.1,0.9-2,2-2h10C168.1,179,169,179.9,169,181z"
		/>
</g>
<g>
	<path class="st6" d="M144,212L144,212c-1.1,0-2-0.9-2-2v-10c0-1.1,0.9-2,2-2l0,0c1.1,0,2,0.9,2,2v10C146,211.1,145.1,212,144,212z"
		/>
	<path class="st6" d="M151,205L151,205c0,1.1-0.9,2-2,2h-10c-1.1,0-2-0.9-2-2l0,0c0-1.1,0.9-2,2-2h10C150.1,203,151,203.9,151,205z"
		/>
</g>
<g>
	<path class="st5" d="M138.5,185L138.5,185c-1.5,0-2.71-1.22-2.71-2.71v-13.57c0-1.5,1.22-2.71,2.71-2.71l0,0
		c1.5,0,2.71,1.22,2.71,2.71v13.57C141.21,183.78,140,185,138.5,185z"/>
	<path class="st5" d="M148,175.5L148,175.5c0,1.5-1.22,2.71-2.71,2.71h-13.57c-1.5,0-2.71-1.22-2.71-2.71l0,0
		c0-1.5,1.22-2.71,2.71-2.71h13.57C146.78,172.79,148,174,148,175.5z"/>
</g>
<g>
	<path class="st5" d="M361.53,96.16L361.53,96.16c-1.5,0-2.71-1.22-2.71-2.71V79.87c0-1.5,1.22-2.71,2.71-2.71l0,0
		c1.5,0,2.71,1.22,2.71,2.71v13.57C364.25,94.94,363.03,96.16,361.53,96.16z"/>
	<path class="st5" d="M371.03,86.66L371.03,86.66c0,1.5-1.22,2.71-2.71,2.71h-13.57c-1.5,0-2.71-1.22-2.71-2.71v0
		c0-1.5,1.22-2.71,2.71-2.71h13.57C369.82,83.95,371.03,85.16,371.03,86.66z"/>
</g>
<g>
	<path class="st5" d="M702.53,164.16L702.53,164.16c-1.5,0-2.71-1.22-2.71-2.71v-13.57c0-1.5,1.22-2.71,2.71-2.71l0,0
		c1.5,0,2.71,1.22,2.71,2.71v13.57C705.25,162.94,704.03,164.16,702.53,164.16z"/>
	<path class="st5" d="M712.03,154.66L712.03,154.66c0,1.5-1.22,2.71-2.71,2.71h-13.57c-1.5,0-2.71-1.22-2.71-2.71l0,0
		c0-1.5,1.22-2.71,2.71-2.71h13.57C710.82,151.95,712.03,153.16,712.03,154.66z"/>
</g>
<path class="st18" d="M510,147.5"/>
<circle class="st6" cx="649" cy="179" r="9"/>
<path class="st6" d="M538.04,151.69l-55.82-32.23c-1.89-1.09-2.54-3.51-1.45-5.39l0.05-0.09c1.09-1.89,3.51-2.54,5.39-1.45
	l55.82,32.23c1.89,1.09,2.54,3.51,1.45,5.39l-0.05,0.09C542.35,152.13,539.93,152.78,538.04,151.69z"/>
<linearGradient id="SVGID_3_" gradientUnits="userSpaceOnUse" x1="410.0207" y1="302.3218" x2="410.0207" y2="122.322" gradientTransform="matrix(1 0 0 1 0.3803 -0.5789)">
	<stop  offset="0.1138" style="stop-color:#FFFFFF;stop-opacity:0"/>
	<stop  offset="0.4153" style="stop-color:#C1BADB;stop-opacity:0.364"/>
	<stop  offset="0.9422" style="stop-color:#4E3A99"/>
</linearGradient>
<polyline class="st19" points="482.9,119.4 535.4,149.4 580.4,299.4 240.4,294.4 "/>
</svg>
