<?xml version="1.0" encoding="utf-8"?>
<!-- Generator: Adobe Illustrator 25.3.0, SVG Export Plug-In . SVG Version: 6.00 Build 0)  -->
<svg version="1.1" id="Camada_1" xmlns="http://www.w3.org/2000/svg" xmlns:xlink="http://www.w3.org/1999/xlink" x="0px" y="0px"
	 viewBox="0 0 500 600" style="enable-background:new 0 0 500 600;" xml:space="preserve">
<style type="text/css">
	.st0{fill:#314E55;}
	.st1{fill:#EA86A5;}
</style>
<g>
	<path class="st0" d="M311.19,390.02v7.04c0,1.37-1.11,2.48-2.48,2.48H196.87c-1.37,0-2.48-1.11-2.48-2.48v-7.04
		c0-1.37,1.11-2.48,2.48-2.48h111.83C310.08,387.54,311.19,388.65,311.19,390.02z"/>
	<path class="st0" d="M248.75,156.72h-3c-1.66,0-3-1.34-3-3v-17c0-1.66,1.34-3,3-3h3c1.66,0,3,1.34,3,3v17
		C251.75,155.38,250.41,156.72,248.75,156.72z"/>
	<g>
		<path class="st0" d="M343.25,370.22h-187c-1.66,0-3-1.34-3-3v-212c0-1.66,1.34-3,3-3h187c1.66,0,3,1.34,3,3v212
			C346.25,368.88,344.91,370.22,343.25,370.22z"/>
	</g>
	<g>
		<rect x="174.25" y="172.22" class="st1" width="150" height="179"/>
	</g>
	<path class="st0" d="M172.16,465.18l-6.62-2.4c-1.29-0.47-1.95-1.89-1.49-3.18l38.06-105.16c0.47-1.29,1.89-1.95,3.18-1.49
		l6.62,2.4c1.29,0.47,1.95,1.89,1.49,3.18L175.33,463.7C174.86,464.98,173.44,465.65,172.16,465.18z"/>
	<path class="st0" d="M342.43,462.56l-6.6,2.46c-1.28,0.48-2.71-0.17-3.19-1.46l-39.09-104.78c-0.48-1.28,0.17-2.71,1.46-3.19
		l6.6-2.46c1.28-0.48,2.71,0.17,3.19,1.46l39.09,104.78C344.36,460.65,343.71,462.08,342.43,462.56z"/>
	<path class="st0" d="M222.25,223.22l6,47c0,0,42,11,44,10s-57,26-57,26l44-71l13.05,37.32l-53.73-7.82l53.73-7.76"/>
</g>
</svg>
