<svg  viewBox="0 0 56 56" fill="none" xmlns="http://www.w3.org/2000/svg">
<path d="M12.0092 16.9534C14.7885 16.9534 17.0415 14.7003 17.0415 11.921C17.0415 9.14174 14.7885 6.88867 12.0092 6.88867C9.22987 6.88867 6.97681 9.14174 6.97681 11.921C6.97681 14.7003 9.22987 16.9534 12.0092 16.9534Z" fill="white"/>
<path d="M21.7933 20.7667V48.6862H30.4619V34.8794C30.4619 31.2362 31.1473 27.708 35.6645 27.708C40.1195 27.708 40.1747 31.8733 40.1747 35.1094V48.6885H48.848V33.3775C48.848 25.8565 47.2288 20.0767 38.4383 20.0767C34.2178 20.0767 31.3888 22.3927 30.2319 24.5846H30.1146V20.7667H21.7933ZM7.66675 20.7667H16.3492V48.6862H7.66675V20.7667Z" fill="white"/>
</svg>
